<svg xmlns="http://www.w3.org/2000/svg" width="27" height="36" viewBox="0 0 27 36">
  <path id="icon_else" d="M27,8.574V9H18V0h.426a1.688,1.688,0,0,1,1.193.494l6.886,6.886A1.688,1.688,0,0,1,27,8.574ZM17.438,11.25A1.692,1.692,0,0,1,15.75,9.563V0H1.688A1.687,1.687,0,0,0,0,1.688V34.313A1.687,1.687,0,0,0,1.688,36H25.313A1.687,1.687,0,0,0,27,34.313V11.25ZM8.663,28.161a.38.38,0,0,1-.537.017L3.565,23.9a.38.38,0,0,1,0-.554l4.561-4.276a.38.38,0,0,1,.537.017l1.377,1.468a.38.38,0,0,1-.026.545L7.147,23.625l2.866,2.522a.38.38,0,0,1,.026.545ZM12.27,31.71l-1.93-.56a.38.38,0,0,1-.259-.471L14.4,15.8a.38.38,0,0,1,.471-.259l1.93.56a.38.38,0,0,1,.259.471l-4.32,14.88a.379.379,0,0,1-.47.259ZM23.575,23.9l-4.561,4.276a.38.38,0,0,1-.537-.017L17.1,26.692a.38.38,0,0,1,.026-.545l2.866-2.522L17.127,21.1a.38.38,0,0,1-.026-.545l1.377-1.468a.38.38,0,0,1,.537-.017l4.561,4.276a.38.38,0,0,1,0,.554Z"/>
</svg>
