<svg id="Layer_1" data-name="Layer 1" xmlns="http://www.w3.org/2000/svg" xmlns:xlink="http://www.w3.org/1999/xlink" viewBox="0 0 1920 1080">
    <defs>
        <style>.cls-1{fill:#fff;}.cls-2{fill:#3fa9f5;}.cls-3{fill:url(#linear-gradient);}</style>
        <linearGradient id="linear-gradient" x1="1149.08" y1="851.22" x2="1149.08" y2="1038.77" gradientUnits="userSpaceOnUse">
            <stop offset="0" stop-color="#fff" />
            <stop offset="0.17" stop-color="#fff" stop-opacity="0.99" />
            <stop offset="0.3" stop-color="#fff" stop-opacity="0.95" />
            <stop offset="0.42" stop-color="#fff" stop-opacity="0.88" />
            <stop offset="0.53" stop-color="#fff" stop-opacity="0.79" />
            <stop offset="0.64" stop-color="#fff" stop-opacity="0.68" />
            <stop offset="0.74" stop-color="#fff" stop-opacity="0.53" />
            <stop offset="0.84" stop-color="#fff" stop-opacity="0.36" />
            <stop offset="0.93" stop-color="#fff" stop-opacity="0.17" />
            <stop offset="1" stop-color="#fff" stop-opacity="0" />
        </linearGradient>
    </defs>
    <title>general b</title>
    <path class="cls-1" d="M1385.37,779.17h-34.64l-70.38-120.79h-43.51q-.64,60.81-1.28,121.62h-33V631.89l61-.29-61-104.25V498.78h83.93a119.72,119.72,0,0,1,34,4.61,76.37,76.37,0,0,1,27.06,14,65.26,65.26,0,0,1,17.95,23.44q6.47,14,6.47,32.85a78.88,78.88,0,0,1-4.42,27,70.38,70.38,0,0,1-12.55,21.87,74.14,74.14,0,0,1-5.9,6.2,81.5,81.5,0,0,1-13.71,10.17,186.62,186.62,0,0,1-25,12.79ZM1235.56,528.59l61.52,99.67a45.46,45.46,0,0,0,6-1.42,50.18,50.18,0,0,0,18.14-10.69,48.54,48.54,0,0,0,12-17.06,57.2,57.2,0,0,0,4.31-22.65q0-22.55-14.61-35.2t-42.26-12.65Z" />
    <path class="cls-1" d="M407.65,779.81H374.84v-280h32.81Z" />
    <path class="cls-1" d="M671.83,768.1q-31,16.39-77.32,16.4-59.75,0-95.68-38.47T462.91,645.09q0-67.17,40.41-108.57t102.51-41.39q39.84,0,66,11.52v35q-30.08-16.8-66.39-16.79-48.23,0-78.2,32.21t-30,86.11q0,51.17,28,81.52T598.81,755q42.16,0,73-18.75Z" />
    <path class="cls-1" d="M894.43,529.49H813.59V779.81h-32.8V529.49H700.15V499.81H894.43Z" />
    <path class="cls-1" d="M1143.19,666.56q0,117.95-106.42,117.94-101.92,0-101.93-113.45V499.81h32.81v169.1q0,86.1,72.64,86.11,70.1,0,70.09-83.18v-172h32.81Z" />
    <path class="cls-1" d="M1600.68,779.81h-148.4v-280h142.15v29.68H1485.09v93.14h101.14v29.48H1485.09v98h115.59Z" />
    <path class="cls-1" d="M1641.49,768.49V729.83a75,75,0,0,0,15.91,10.54,128.22,128.22,0,0,0,19.53,7.91,154.69,154.69,0,0,0,20.6,5,115.06,115.06,0,0,0,19.13,1.76q30.27,0,45.21-11.23t14.93-32.32a38,38,0,0,0-5-19.72,56.12,56.12,0,0,0-13.76-15.33,137.36,137.36,0,0,0-20.8-13.27q-12-6.35-25.87-13.38-14.64-7.41-27.33-15a118.35,118.35,0,0,1-22.07-16.8,69.83,69.83,0,0,1-14.74-20.79q-5.37-11.61-5.37-27.24,0-19.12,8.4-33.29a71.93,71.93,0,0,1,22.06-23.33,99.86,99.86,0,0,1,31.14-13.67,142.8,142.8,0,0,1,35.64-4.49q41.4,0,60.33,9.95V542q-24.79-17.18-63.65-17.18a105.18,105.18,0,0,0-21.48,2.24,60.74,60.74,0,0,0-19.13,7.32,42.37,42.37,0,0,0-13.67,13.09q-5.28,8-5.27,19.52,0,10.74,4,18.55a45.33,45.33,0,0,0,11.81,14.26,117.18,117.18,0,0,0,19,12.49q11.22,6.06,25.87,13.28,15,7.43,28.51,15.62a130.08,130.08,0,0,1,23.62,18.16,80.68,80.68,0,0,1,16.11,22.06q6,12.12,6,27.73,0,20.7-8.1,35a66.55,66.55,0,0,1-21.87,23.33,95.58,95.58,0,0,1-31.73,13,174.37,174.37,0,0,1-37.88,4,155.58,155.58,0,0,1-16.4-1.07q-9.78-1.08-19.92-3.13a162.43,162.43,0,0,1-19.23-5.07A59.87,59.87,0,0,1,1641.49,768.49Z" />
    <path class="cls-1" d="M206.43,654.73H161q-.66,63.46-1.33,126.94H125.29V627.07l63.67-.29L125.29,518V488.14H212.9A125.11,125.11,0,0,1,248.41,493a79.5,79.5,0,0,1,28.25,14.64,68,68,0,0,1,18.73,24.46q6.75,14.64,6.76,34.28a82.58,82.58,0,0,1-4.61,28.15,73.46,73.46,0,0,1-13.1,22.82,74.68,74.68,0,0,1-6.17,6.48A84.2,84.2,0,0,1,264,634.4c-7.92,4.85-15.24,9.34-26.1,13.34A121.11,121.11,0,0,1,206.43,654.73ZM159.68,519.25l64.21,104a47.3,47.3,0,0,0,6.3-1.48,52.33,52.33,0,0,0,18.94-11.16,50.67,50.67,0,0,0,12.49-17.81,59.77,59.77,0,0,0,4.5-23.64q0-23.54-15.25-36.74t-44.11-13.21Z" />
    <path class="cls-1" d="M1048,81.19c4.2.47,8.41.86,12.6,1.42a143.27,143.27,0,0,1,29.13,7A148.67,148.67,0,0,1,1112.5,100a143,143,0,0,1,21.23,14.52c2.37,2,4.72,3.92,6.91,6.07-.31.63-.82.36-1.21.34-11.54-.45-22.77,1.43-33.88,4.36a248.85,248.85,0,0,0-33.22,11.59q-16.32,6.9-31.93,15.22c-7.19,3.82-14.35,7.7-21.29,12a40.68,40.68,0,0,1-4.67,2.66c-3.85,1.72-6,5-8,8.41-2.85,4.73-5.35,9.68-8.36,14.3-3.91,6-7.23,12.37-11,18.44-.93,1.49-2,2.92-2.89,4.43-.75-.22-.44-.77-.45-1.13-.57-20.38-.47-40.77,2.37-61,2.07-14.7,4.28-29.49,9.89-43.39,2.64-6.56,5.61-13,9.8-18.85a9.32,9.32,0,0,1,6.46-4.2c6-1,12-1.86,18.15-2.23a3.24,3.24,0,0,0,1.86-.34Z" />
    <path class="cls-1" d="M900.36,185.1a10.17,10.17,0,0,1,2.41,3.32c4.88,9.11,11.93,16.5,19.17,23.69,2.3,2.28,4.76,4.46,7.24,6.59a290.46,290.46,0,0,0,24.26,18.57c6.13,4.21,12.43,8.17,18.76,12.06,11.21,6.88,22.79,13.12,34.48,19.13a14.89,14.89,0,0,0,7.17,1.62c15.17-.1,30.34-.05,45.51,0a3.88,3.88,0,0,1,2.16.24c-3.89,2.29-7.68,4.53-11.47,6.75-.83.48-1.72.85-2.54,1.33-9.28,5.39-18.87,10.18-28.56,14.74a288.92,288.92,0,0,1-30.79,12.59c-12.43,4.21-25.06,7.62-38.23,8.54a76.73,76.73,0,0,1-13.47-.28,7.05,7.05,0,0,1-4.65-2.68c-2.8-3.18-5.29-6.63-8-9.88-4.51-5.41-7.73-11.59-11.33-17.57-4.53-7.54-7.39-15.72-10.15-24-8-24.06-8-48.38-2.46-72.9C900,186.37,900.17,185.82,900.36,185.1Z" />
    <path class="cls-1" d="M1000.72,84.18C993,95,989.44,107.44,986,120s-4.92,25.19-6,38A417.5,417.5,0,0,0,979,216.6a5.48,5.48,0,0,0,.7,2.55c5.07,8.85,10.45,17.51,15.67,26.27,2.74,4.61,5.42,9.28,8.23,13.86a3.16,3.16,0,0,1,.79,1.87c-3.37-1.75-6.69-3.35-9.9-5.16-9.83-5.54-19.64-11.12-29.12-17.29-7.21-4.69-14.29-9.54-21.16-14.71a228.71,228.71,0,0,1-21.34-18.22c-4-3.86-7.39-8.17-11-12.36a61,61,0,0,1-9.16-15.27,4.49,4.49,0,0,1-.15-3.51A106.34,106.34,0,0,1,910.35,156c3.39-6,6.62-12.18,10.83-17.69,3.23-4.23,6.51-8.44,10.11-12.34a144.09,144.09,0,0,1,21.32-19.08,140.71,140.71,0,0,1,20.86-12.66A124.25,124.25,0,0,1,1000.72,84.18Z" />
    <path class="cls-1" d="M1030.82,361c-4.2-.47-8.41-.86-12.59-1.42a142.29,142.29,0,0,1-29.13-7.05,147.39,147.39,0,0,1-22.75-10.33,142.16,142.16,0,0,1-21.22-14.52c-2.38-2-4.72-3.92-6.91-6.06.31-.63.82-.36,1.2-.35,11.54.45,22.78-1.43,33.88-4.36a247,247,0,0,0,33.23-11.58q16.31-6.9,31.92-15.23c7.2-3.82,14.36-7.69,21.29-12a40.05,40.05,0,0,1,4.67-2.66c3.86-1.72,6-5,8-8.42,2.85-4.72,5.34-9.68,8.35-14.29,3.92-6,7.24-12.37,11-18.45.93-1.48,2-2.92,2.89-4.43.75.22.44.77.45,1.13.57,20.38.47,40.77-2.37,61-2.07,14.7-4.28,29.49-9.89,43.39-2.64,6.56-5.61,13.05-9.8,18.86a9.38,9.38,0,0,1-6.46,4.2c-6,1-12.06,1.86-18.15,2.22a3.28,3.28,0,0,0-1.87.34Z" />
    <path class="cls-1" d="M1180.56,254a10.07,10.07,0,0,1-2.42-3.27c-4.87-9-11.93-16.3-19.16-23.4-2.3-2.26-4.76-4.41-7.24-6.51a288.48,288.48,0,0,0-24.27-18.34c-6.12-4.16-12.42-8.07-18.76-11.92-11.2-6.79-22.78-12.95-34.47-18.89a15,15,0,0,0-7.18-1.6c-15.17.1-30.33.05-45.5,0a4,4,0,0,1-2.16-.24c3.89-2.26,7.67-4.47,11.47-6.66.82-.48,1.71-.84,2.54-1.32,9.27-5.32,18.86-10,28.55-14.56a293.87,293.87,0,0,1,30.79-12.43c12.44-4.16,25.06-7.53,38.23-8.44a77.83,77.83,0,0,1,13.48.28,7.12,7.12,0,0,1,4.65,2.65c2.8,3.14,5.29,6.54,8,9.76,4.51,5.34,7.72,11.45,11.32,17.35,4.54,7.45,7.4,15.53,10.15,23.69,8,23.76,8,47.79,2.46,72C1180.91,252.75,1180.75,253.3,1180.56,254Z" />
    <path class="cls-1" d="M1080.2,354.92c7.68-10.83,11.28-23.21,14.73-35.73s4.91-25.13,6-37.88a415.79,415.79,0,0,0,.92-58.53,5.55,5.55,0,0,0-.69-2.54c-5.07-8.83-10.46-17.47-15.67-26.21-2.75-4.61-5.43-9.26-8.24-13.84a3.26,3.26,0,0,1-.79-1.86c3.37,1.75,6.7,3.34,9.9,5.15,9.84,5.53,19.65,11.1,29.13,17.25,7.21,4.68,14.29,9.52,21.16,14.68A229.46,229.46,0,0,1,1158,233.6c4,3.85,7.38,8.15,11,12.33a60.87,60.87,0,0,1,9.16,15.23,4.51,4.51,0,0,1,.15,3.5,106,106,0,0,1-7.75,18.64c-3.39,6-6.63,12.15-10.84,17.65-3.22,4.22-6.51,8.42-10.11,12.31a144.38,144.38,0,0,1-21.31,19.05,141.48,141.48,0,0,1-20.87,12.63A124.79,124.79,0,0,1,1080.2,354.92Z" />
    <path class="cls-2" d="M287.19,146.65v214H201.33v-214H122v-66l261.31.08.52,65.87Z" />
    <path class="cls-2" d="M381.65,360.65v-280h85.46v280Z" />
    <path class="cls-1" d="M778.48,360.65V207.18q0-21.68,1.36-47.64l.59-12.89h-2.34q-6.26,33-9.57,45.69l-41.2,168.31H648.05L604.89,194.29q-1.75-6.24-9.17-47.64h-2.35q2.73,65.61,2.74,82v132h-74v-280H648.44L686.9,232.76q1.36,4.68,3.61,19T693.35,274h1.17q2.15-17.76,6.83-42L737.28,80.65H861.66v280Z" />
    <path class="cls-3" d="M499,927.55H723.56v111.22H734.1V927.55H974.66v111.22H985.2V927.55h240.56v111.22h12.29V927.55h240.57v111.22h14V927.55h240.57v111.22h14V927.55h67.12V910.1h-23.6V879.57h23.6V851.22H483.78v28.35h15V910.1h-15v128.67H499Zm1239.89-48h32.21V910.1h-32.21Zm-55.47,0h32.21V910.1h-32.21Zm-51.9,0h32.21V910.1h-32.21Zm-53.68,0h32.21V910.1h-32.21Zm-53.69,0h32.21V910.1h-32.21Zm-51.89,0h32.21V910.1h-32.21Zm-53.69,0h32.21V910.1h-32.21Zm-53.68,0h32.21V910.1h-32.21Zm-51.9,0h32.21V910.1H1313Zm-53.68,0h32.21V910.1h-32.21Zm-53.69,0h32.21V910.1h-32.21Zm-51.89,0h32.21V910.1h-32.21Zm-53.69,0h32.21V910.1H1100Zm-50.1,0h32.21V910.1h-32.21Zm-51.9,0h32.21V910.1H998Zm-53.68,0h32.21V910.1H944.36Zm-53.69,0h32.21V910.1H890.67Zm-51.89,0H871V910.1H838.78Zm-53.69,0H817.3V910.1H785.09Zm-53.68,0h32.21V910.1H731.41Zm-51.9,0h32.21V910.1H679.51Zm-53.68,0H658V910.1H625.83Zm-53.69,0h32.21V910.1H572.14Zm-51.89,0h32.21V910.1H520.25Z" />
</svg>